<svg version="1.1" xmlns="http://www.w3.org/2000/svg" xmlns:xlink="http://www.w3.org/1999/xlink" width="70" height="70" viewBox="0,0,70,70" xmlns:odoo-icon="https://ivantodorovich.github.io/odoo-icon" odoo-icon:version="1.0" odoo-icon:size="70" odoo-icon:icon-size="0.65" odoo-icon:icon-color="#FFFFFF" odoo-icon:icon-flat-shadow-angle="135" odoo-icon:background-color="#f4511e" odoo-icon:background-gradient="0.2" odoo-icon:box-radius="3.5" odoo-icon:odoo-version="16.0"><defs><linearGradient x1="70" y1="0" x2="0" y2="70" gradientUnits="userSpaceOnUse" id="color-1"><stop offset="0" stop-color="#ff8451"/><stop offset="1" stop-color="#f4511e"/></linearGradient></defs><g fill="none" fill-rule="nonzero" stroke="none" stroke-width="1" stroke-linecap="butt" stroke-linejoin="miter" stroke-miterlimit="10" stroke-dasharray="" stroke-dashoffset="0" font-family="none" font-weight="none" font-size="none" text-anchor="none" style="mix-blend-mode: normal"><path d="M3.5,70c-1.933,0 -3.5,-1.567 -3.5,-3.5v-63c0,-1.933 1.567,-3.5 3.5,-3.5h63c1.933,0 3.5,1.567 3.5,3.5v63c0,1.933 -1.567,3.5 -3.5,3.5z" id="box" fill="url(#color-1)"/><path d="M65,1h-61c-1.95033,0 -3.2667,0.63396 -3.9491,1.90189c0.28378,-1.64806 1.72001,-2.90189 3.4491,-2.90189h63c1.72965,0 3.16627,1.25466 3.44938,2.90352c-0.69803,-1.26902 -2.34782,-1.90352 -4.94938,-1.90352z" id="topBoxShadow" fill="#ffffff" opacity="0.383"/><path d="M4,69h61c2.66667,0 4.33333,-1 5,-3v0.5c0,1.933 -1.567,3.5 -3.5,3.5h-63c-1.933,0 -3.5,-1.567 -3.5,-3.5c0,-0.1611 0,-0.32777 0,-0.5c0.66667,2 2,3 4,3z" id="bottomBoxShadow" fill="#000000" opacity="0.383"/><path d="M53.73719,55.21609h-10.62846c0.14349,0.15269 0.23041,0.35091 0.23041,0.56707c0,0.47784 -0.42541,0.87014 -0.95063,0.87014h-14.89042c-0.52383,0 -0.94925,-0.3923 -0.94925,-0.87014c0,-0.2157 0.08692,-0.41438 0.23041,-0.56707h-10.41644v-4.36636h1.0095v-15.37516h-4.50801l0.00138,-0.00184c-0.29066,-0.00322 -0.56385,-0.14441 -0.72665,-0.40886c-0.27686,-0.45485 -0.12739,-1.1001 0.33435,-1.43721l9.23172,-6.83422v-7.0444h-0.21478c-0.50728,0 -0.91752,-0.34907 -0.91752,-0.77908c0,-0.42955 0.41024,-0.77908 0.91752,-0.77908h5.38459c0.50728,0 0.91752,0.34861 0.91752,0.77908c0,0.43047 -0.41024,0.77908 -0.91752,0.77908h-0.32561v3.4585l7.64044,-5.65594c0.25295,-0.1858 0.54821,-0.24191 0.80898,-0.17936c0.26077,-0.06255 0.55649,-0.00598 0.81128,0.18028l21.71636,16.07606c0.46221,0.33711 0.61214,0.98236 0.33343,1.43721c-0.16833,0.27364 -0.45393,0.4153 -0.75609,0.4084l0.00092,0.00092h-4.37418v15.37516h1.00674z" id="shadow" fill="#000000" opacity="0.3"/><path d="M20.79074,16.46497c0.16821,-0.16821 0.41906,-0.2751 0.69959,-0.2751h5.38459c0.50728,0 0.91752,0.34861 0.91752,0.77908c0,0.19234 -0.0819,0.36833 -0.21776,0.50419l-1.02537,1.02537v2.70802l7.64044,-5.65594c0.25295,-0.1858 0.54821,-0.24191 0.80898,-0.17936c0.26077,-0.06255 0.55649,-0.00598 0.81128,0.18028l21.71636,16.07606c0.46221,0.33711 0.61214,0.98236 0.33343,1.43721c-0.03693,0.06003 -0.0795,0.11371 -0.12665,0.16086c0,0 0,0 0,0l-5.0027,5.0027v10.62092h1.00674v4.36682l-16.78391,16.78391h-33.45328c-1.933,0 -3.5,-1.567 -3.5,-3.5l0,-29.24429z" id="flatShadow" fill="#000000" opacity="0.324"/><path d="M53.73719,53.21609h-10.62846c0.14349,0.15269 0.23041,0.35091 0.23041,0.56707c0,0.47784 -0.42541,0.87014 -0.95063,0.87014h-14.89042c-0.52383,0 -0.94925,-0.3923 -0.94925,-0.87014c0,-0.2157 0.08692,-0.41438 0.23041,-0.56707h-10.41644v-4.36636h1.0095v-15.37516h-4.50801l0.00138,-0.00184c-0.29066,-0.00322 -0.56385,-0.14441 -0.72665,-0.40886c-0.27686,-0.45485 -0.12739,-1.1001 0.33435,-1.43721l9.23172,-6.83422v-7.0444h-0.21478c-0.50728,0 -0.91752,-0.34907 -0.91752,-0.77908c0,-0.42955 0.41024,-0.77908 0.91752,-0.77908h5.38459c0.50728,0 0.91752,0.34861 0.91752,0.77908c0,0.43047 -0.41024,0.77908 -0.91752,0.77908h-0.32561v3.4585l7.64044,-5.65594c0.25295,-0.1858 0.54821,-0.24191 0.80898,-0.17936c0.26077,-0.06255 0.55649,-0.00598 0.81128,0.18028l21.71636,16.07606c0.46221,0.33711 0.61214,0.98236 0.33343,1.43721c-0.16833,0.27364 -0.45393,0.4153 -0.75609,0.4084l0.00092,0.00092h-4.37418v15.37516h1.00674z" id="icon" fill="#ffffff"/></g></svg>