<?xml version="1.0" standalone="no"?>
<!DOCTYPE svg PUBLIC "-//W3C//DTD SVG 20010904//EN"
 "http://www.w3.org/TR/2001/REC-SVG-20010904/DTD/svg10.dtd">
<svg version="1.0" xmlns="http://www.w3.org/2000/svg"
 width="84.000000pt" height="84.000000pt" viewBox="0 0 84.000000 84.000000"
 preserveAspectRatio="xMidYMid meet">

<g transform="translate(0.000000,84.000000) scale(0.100000,-0.100000)"
fill="#000000" stroke="none">
<path d="M5 790 c3 -5 8 -10 11 -10 2 0 4 5 4 10 0 6 -5 10 -11 10 -5 0 -7 -4
-4 -10z"/>
<path d="M820 789 c0 -5 5 -7 10 -4 6 3 10 8 10 11 0 2 -4 4 -10 4 -5 0 -10
-5 -10 -11z"/>
<path d="M423 633 c15 -2 27 -8 27 -14 0 -11 69 -41 81 -33 15 9 51 -17 45
-32 -7 -19 20 -74 37 -74 7 0 18 -12 25 -27 10 -24 10 -25 5 -3 -3 13 -19 37
-35 53 -18 18 -27 36 -23 46 6 20 -26 54 -47 50 -21 -4 -66 12 -79 27 -6 8
-23 13 -38 13 l-26 -2 28 -4z"/>
<path d="M354 606 c-19 -9 -36 -10 -41 -5 -11 11 -53 -17 -53 -34 0 -7 -59
-71 -130 -142 l-131 -130 2 -132 c0 -73 5 -133 10 -133 5 0 9 -7 9 -15 0 -13
22 -15 142 -15 l142 0 155 153 c86 83 160 159 164 167 5 8 0 4 -10 -8 -11 -13
-26 -22 -34 -20 -20 4 -66 -33 -70 -58 -4 -19 -49 -34 -49 -15 0 16 -73 18
-86 2 -14 -18 -58 -5 -50 15 8 20 -44 65 -66 58 -20 -6 -36 32 -20 48 10 10 6
27 -21 85 -11 25 -3 53 15 53 15 0 43 57 40 80 -3 17 34 44 42 31 6 -9 76 10
76 21 0 10 2 10 -36 -6z"/>
<path d="M375 521 c-41 -18 -60 -51 -60 -103 0 -43 4 -53 33 -79 47 -43 102
-41 148 5 45 45 47 101 7 146 -30 33 -90 48 -128 31z"/>
<path d="M607 383 c-9 -51 -2 -53 11 -3 5 22 6 40 2 40 -4 0 -10 -17 -13 -37z"/>
<path d="M820 51 c0 -6 4 -13 10 -16 6 -3 7 1 4 9 -7 18 -14 21 -14 7z"/>
</g>
</svg>
